<svg width="132" height="43" viewBox="0 0 132 43" fill="none" xmlns="http://www.w3.org/2000/svg">
<path d="M54.8321 27.8838H46.6841L45.2841 31.8598H41.9521L48.9241 12.3718H52.6201L59.5921 31.8598H56.2321L54.8321 27.8838ZM53.9361 25.2798L50.7721 16.2358L47.5802 25.2798H53.9361ZM65.8155 18.6998C66.3569 17.9905 67.0942 17.3932 68.0275 16.9078C68.9609 16.4225 70.0155 16.1798 71.1915 16.1798C72.5355 16.1798 73.7582 16.5158 74.8595 17.1878C75.9795 17.8412 76.8569 18.7652 77.4916 19.9598C78.1263 21.1545 78.4435 22.5265 78.4435 24.0758C78.4435 25.6252 78.1263 27.0158 77.4916 28.2478C76.8569 29.4612 75.9795 30.4132 74.8595 31.1038C73.7582 31.7758 72.5355 32.1118 71.1915 32.1118C70.0155 32.1118 68.9702 31.8785 68.0555 31.4118C67.1409 30.9265 66.3942 30.3292 65.8155 29.6198V39.1958H62.6236V16.4318H65.8155V18.6998ZM75.1955 24.0758C75.1955 23.0118 74.9715 22.0972 74.5235 21.3318C74.0942 20.5478 73.5155 19.9598 72.7875 19.5678C72.0782 19.1572 71.313 18.9518 70.4916 18.9518C69.6889 18.9518 68.9235 19.1572 68.1955 19.5678C67.4862 19.9785 66.9075 20.5758 66.4595 21.3598C66.0302 22.1438 65.8155 23.0678 65.8155 24.1318C65.8155 25.1958 66.0302 26.1292 66.4595 26.9318C66.9075 27.7158 67.4862 28.3132 68.1955 28.7238C68.9235 29.1345 69.6889 29.3398 70.4916 29.3398C71.313 29.3398 72.0782 29.1345 72.7875 28.7238C73.5155 28.2945 74.0942 27.6785 74.5235 26.8758C74.9715 26.0732 75.1955 25.1398 75.1955 24.0758ZM84.7921 18.6998C85.3335 17.9905 86.0708 17.3932 87.0041 16.9078C87.9374 16.4225 88.9921 16.1798 90.1681 16.1798C91.5121 16.1798 92.7348 16.5158 93.8361 17.1878C94.9561 17.8412 95.8335 18.7652 96.4682 19.9598C97.1029 21.1545 97.4201 22.5265 97.4201 24.0758C97.4201 25.6252 97.1029 27.0158 96.4682 28.2478C95.8335 29.4612 94.9561 30.4132 93.8361 31.1038C92.7348 31.7758 91.5121 32.1118 90.1681 32.1118C88.9921 32.1118 87.9468 31.8785 87.0321 31.4118C86.1174 30.9265 85.3708 30.3292 84.7921 29.6198V39.1958H81.6001V16.4318H84.7921V18.6998ZM94.1721 24.0758C94.1721 23.0118 93.9482 22.0972 93.5001 21.3318C93.0709 20.5478 92.4921 19.9598 91.7641 19.5678C91.0548 19.1572 90.2895 18.9518 89.4682 18.9518C88.6655 18.9518 87.9001 19.1572 87.1721 19.5678C86.4628 19.9785 85.8841 20.5758 85.4361 21.3598C85.0068 22.1438 84.7921 23.0678 84.7921 24.1318C84.7921 25.1958 85.0068 26.1292 85.4361 26.9318C85.8841 27.7158 86.4628 28.3132 87.1721 28.7238C87.9001 29.1345 88.6655 29.3398 89.4682 29.3398C90.2895 29.3398 91.0548 29.1345 91.7641 28.7238C92.4921 28.2945 93.0709 27.6785 93.5001 26.8758C93.9482 26.0732 94.1721 25.1398 94.1721 24.0758ZM102.201 14.3878C101.622 14.3878 101.137 14.1918 100.745 13.7998C100.353 13.4078 100.157 12.9225 100.157 12.3438C100.157 11.7652 100.353 11.2798 100.745 10.8878C101.137 10.4958 101.622 10.2998 102.201 10.2998C102.761 10.2998 103.237 10.4958 103.629 10.8878C104.021 11.2798 104.217 11.7652 104.217 12.3438C104.217 12.9225 104.021 13.4078 103.629 13.7998C103.237 14.1918 102.761 14.3878 102.201 14.3878ZM103.769 16.4318V31.8598H100.577V16.4318H103.769ZM111.151 11.1398V31.8598H107.959V11.1398H111.151ZM122.034 32.1118C120.578 32.1118 119.262 31.7852 118.086 31.1318C116.91 30.4598 115.986 29.5265 115.314 28.3318C114.642 27.1185 114.306 25.7185 114.306 24.1318C114.306 22.5638 114.652 21.1732 115.342 19.9598C116.033 18.7465 116.976 17.8132 118.17 17.1598C119.365 16.5065 120.7 16.1798 122.174 16.1798C123.649 16.1798 124.984 16.5065 126.178 17.1598C127.373 17.8132 128.316 18.7465 129.006 19.9598C129.697 21.1732 130.042 22.5638 130.042 24.1318C130.042 25.6998 129.688 27.0905 128.978 28.3038C128.269 29.5172 127.298 30.4598 126.066 31.1318C124.853 31.7852 123.509 32.1118 122.034 32.1118ZM122.034 29.3398C122.856 29.3398 123.621 29.1438 124.33 28.7518C125.058 28.3598 125.646 27.7718 126.094 26.9878C126.542 26.2038 126.766 25.2518 126.766 24.1318C126.766 23.0118 126.552 22.0692 126.122 21.3038C125.693 20.5198 125.124 19.9318 124.414 19.5398C123.705 19.1478 122.94 18.9518 122.118 18.9518C121.297 18.9518 120.532 19.1478 119.822 19.5398C119.132 19.9318 118.581 20.5198 118.17 21.3038C117.76 22.0692 117.554 23.0118 117.554 24.1318C117.554 25.7932 117.974 27.0812 118.814 27.9958C119.673 28.8918 120.746 29.3398 122.034 29.3398Z" fill="black"/>
<path d="M17.459 4.85986L2.79544 18.2127C1.90919 19.0197 1.20616 19.9778 0.72652 21.0323C0.246874 22.0868 0 23.2171 0 24.3585C0 25.4999 0.246874 26.6301 0.72652 27.6846C1.20616 28.7391 1.90919 29.6973 2.79544 30.5043L3.05774 30.7432C3.92482 31.5317 5.10005 31.9746 6.32536 31.9746C7.55067 31.9746 8.7259 31.5317 9.59298 30.7432L15.9985 24.9067L15.7362 24.6552C15.3072 24.2642 14.7978 23.954 14.2371 23.7423C13.6765 23.5307 13.0755 23.4217 12.4686 23.4217C11.8616 23.4217 11.2606 23.5307 10.7 23.7423C10.1393 23.954 9.6299 24.2642 9.20093 24.6552L17.459 17.1339C19.243 15.5047 20.2448 13.2977 20.2448 10.9969C20.2448 8.69599 19.243 6.489 17.459 4.85986Z" fill="#FFB000"/>
<path d="M29.2061 15.1601L28.9301 14.9213C28.5014 14.5303 27.9922 14.2201 27.4318 14.0085C26.8714 13.7969 26.2707 13.688 25.6641 13.688C25.0574 13.688 24.4567 13.7969 23.8963 14.0085C23.3359 14.2201 22.8268 14.5303 22.398 14.9213L15.8189 20.9152L16.0811 21.154C16.5099 21.545 17.019 21.8552 17.5794 22.0668C18.1398 22.2784 18.7405 22.3873 19.3472 22.3873C19.9538 22.3873 20.5545 22.2784 21.1149 22.0668C21.6753 21.8552 22.1845 21.545 22.6132 21.154L14.5495 28.5132C13.6637 29.3201 12.961 30.278 12.4816 31.3324C12.0021 32.3867 11.7554 33.5167 11.7554 34.658C11.7554 35.7992 12.0021 36.9292 12.4816 37.9836C12.961 39.0379 13.6637 39.9959 14.5495 40.8028L29.2061 27.4497C30.0919 26.6428 30.7946 25.6848 31.274 24.6305C31.7534 23.5762 32.0002 22.4461 32.0002 21.3049C32.0002 20.1637 31.7534 19.0336 31.274 17.9793C30.7946 16.925 30.0919 15.967 29.2061 15.1601Z" fill="#5F2DED"/>
</svg>
